<svg xmlns="http://www.w3.org/2000/svg" version="1.0" viewBox="0 0 450 450">
  <defs>
    <clipPath id="a" clipPathUnits="userSpaceOnUse">
      <path fill="red" d="M376 17v534h185v-2h-1v-2c-1 3-4 3-5-1v-1l-3 1h1v1l-1-1-1 1 1 1 1-1-1 1-3 1h-1v-1h-1c0 1-2 2-4 0l-1-1s-1 0 0 0v-2h-1v1l-1-1c0 1 1 2-1 1l-1-1c-2 0-3-2-2-3l-1-1h-2l1 1v1c1 1 1 0-1 2l-2 2h-2l-2-2-1-1h-2v-1a35 35 0 0 1-3-2l-2-2v-1l-1-2h1v-1h3v-3c-1-1 0-2 1-2s2 0 2 2v2l2 1 1-2 1 2h1l1 1 1 1v-2l1-1-1-1c-1-3 0-5 2-5l3 3 1 1-1-1c-1-3 0-5 2-5l3 3 1 3 2-1 2 1c-1-3 0-5 2-5l2 2h1l1 1 6 1h1l2-2 3 3h2l2-2c-1-3 1-4 2-4l2 1h1c1 0 2 1 2 3l2-2c2 0 3 1 3 3h1v-1h-1 1-1v-1l1 1 4-1h-5l4-2 1 2c1 0 1 0 0 0l1 2v-2 1l3 2v-1l-1-1v-1l-1-1 1-1 2-2 3 3 2-4 3 3 1 2v-89l-1-1h-2c-2 0-1 0 0 0l-1-1v-4c-1 4-4 4-5 1h-1 1v-1h-2c0 2-1 2-2 2v3c0 5-9-4-5 0v-2l-1 1v1c1 2 0 2-1 2v1h-1v2l-1 5-1 1-1 1a43 43 0 0 0-1 5v18l1 1v11l-3 3-1-1v6l1 1v2l1 2 1 2v6h-1v7l1 1v4c2 0 1 0 0 0 1 3 0 2-4 2l4-2c-6 1-4 2-5 1v-4l-1-3-1-4v-1c-2 0-1 0 0 0v-3c0-1 0 0 0 0v-1l-1-1a61 61 0 0 1-1-5v-1l1-3v-8c0-2 1-3 3-3h1v-8l-1-2v-19l1-7-1-1v-4l1-5 2-2 1-2 2 1v1l1-2h2l-1-1-2-1c-2 0-1 0 0 0h-4v-2l1-2v-1 1-3l2-4c1-2 2-2 3-2l1-1v-2l1-1 1-3 3-2c2 0 3 2 1 5v1-1l2 2 1-1 1-1 2-1h-1l-1-2-1-3c-1-3-1-1 3-4h1v1h1l-1-2h-3a18 18 0 0 0-2 0h-1v-3h-1c-1 0-2 0 0-1v-1 1l1-1h-1 1l1-2 1-1h1-3c-2 3-5 2-5-1h-20c-4 3-7-1-3-4h1-1c-4 0-5-4-2-5h-1c-4-1-4-5 0-5h1l4 1 2 1h9l2 1 5 1h4l2 1h1l3-1c-1 0-1 0 0 0v-1l2 1v-1 1h3v1h1l2 1 1 2c2 0 2 1 2 2h1V17Zm196 412v2l3-2c-2-1-2-2-3 0zm4 2zm0 0h2-2zm-8 73zm31-65h-1 1zm-65 104v-1 1l-2 2h1l1-2zm46-154h1-1zm1 0zm6 5zm-26 0zm39 2-1 1v3l-1 3v5l-1 2v1c3 1 3 3 2 4l1 1zm-5 24-1 1-1 1 1 1 1-1v-2zm1 14v1-1zm-19 7v1a7 7 0 0 1 0-1zm-7 1v1l1-1h-1zm6 3zm1 4zm-3 35-2 1v1l3-1-1-1zm2 1v1-1zm-5 9a9 9 0 0 0 1 0h-1zm1 0v1-1zm2 6zm-6 4zm-37 38zm0 0h-2 2zm0 1h-1l1 1h1l-1-1zm-1 0zm-4 1zm27 0-1 1a40 40 0 0 0-2 1h-1l2 1 2-3zm33 2v1c0 3-2 4-3 3v1h9l-1-1c-1 0-3 0-4-2l-1-2zm14 5h-1 1zm-25 0z"/>
    </clipPath>
    <clipPath id="b" clipPathUnits="userSpaceOnUse">
      <path fill="red" d="M17 94v464h302V94Zm290 279c2 0 4 2 5 6l2 9-2-3 2 5v1l1 1v2l1 5v3h-1 1l-4 1c-4 2-4 2-5 0v-1l-3 1c-2 0-3-4-3-6v-4l-1-1v-2c-1-3-1-3 2-3l2-3-1-3c0-5 2-8 4-8zm0 30h5l1-1h-6v1zm6-1h2-2z"/>
    </clipPath>
    <clipPath id="c" clipPathUnits="userSpaceOnUse">
      <path fill="red" d="M0 372v228h600v-45h-3l-3-4-3-1c-1 0-3 0-4-2l-1-2v1c0 3-2 4-3 3 0 3-3 4-5 2l-3-1h-2l-4 2c-3 0-4-1-5-2-1 1-3 1-4-2v-2c-1 3-4 3-5-1v-1l-3 1h1v1l-1-1-1 1 1 1 1-1-1 1-3 1h-1v-1h-1c0 1-2 2-4 0l-1-1s-1 0 0 0v-2h-1v1l-1-1c0 1 1 2-1 1l-1-1c-2 0-3-2-2-3l-1-1h-2l1 1v1c1 1 1 0-1 2l-2 2h-2l-2-2-1-1h-2v-1a35 35 0 0 1-3-2l-2-2v-1l-1-2h1v-1h3v-3c-1-1 0-2 1-2s2 0 2 2v2l2 1 1-2 1 2h1l1 1 1 1v-2l1-1-1-1c-1-3 0-5 2-5l3 3 1 1-1-1c-1-3 0-5 2-5l3 3 1 3 2-1 2 1c-1-3 0-5 2-5l2 2h1l1 1 6 1h1l2-2 3 3h2l2-2c-1-3 1-4 2-4l2 1h1c1 0 2 1 2 3l2-2c2 0 3 1 3 3h1v-1h-1 1-1v-1l1 1 4-1h-5l4-2 1 2c1 0 1 0 0 0l1 2v-2 1l3 2v-1l-1-1v-1l-1-1 1-1 2-2 3 3 2-4 3 3 1 2v-89l-1-1h-2c-2 0-1 0 0 0l-1-1v-4c-1 4-4 4-5 1h-1 1v-1h-2c0 2-1 2-2 2v3c0 5-9-4-5 0v-2l-1 1v1c1 2 0 2-1 2v1h-1v2l-1 5-1 1-1 1a43 43 0 0 0-1 5v18l1 1v11l-3 3-1-1v6l1 1v2l1 2 1 2v6h-1v7l1 1v4c2 0 1 0 0 0 1 3 0 2-4 2l4-2c-6 1-4 2-5 1v-4l-1-3-1-4v-1c-2 0-1 0 0 0v-3c0-1 0 0 0 0v-1l-1-1a61 61 0 0 1-1-5v-1l1-3v-8c0-2 1-3 3-3h1v-8l-1-2v-19l1-7-1-1v-4l1-5 2-2 1-2 2 1v1l1-2h2l-1-1-2-1c-2 0-1 0 0 0h-4v-2l1-2v-1 1-3l2-4c1-2 2-2 3-2l1-1v-2l1-1 1-3 3-2c2 0 3 2 1 5v1-1l2 2 1-1 1-1 2-1h-1l-1-2-1-3c-1-3-1-1 3-4h1v1h1a49 49 0 0 0-1-2h-3a18 18 0 0 0-2 0h-1v-3c-2 0-3 0-1-1v-1 1l1-1h-1 1l1-2 1-1h1-3c-2 3-5 2-5-1h-20c-4 3-7-1-3-4h1-1c-4 0-5-4-2-5h-1c-4-1-4-5 0-5h1l4 1 2 1h9l2 1 5 1h4l2 1h1l3-1c-1 0-1 0 0 0v-1l2 1v-1 1h3v1h1l2 1 1 2c2 0 2 1 2 2h1v-18Zm586 28zm-14 29v2l3-2c-2-1-2-2-3 0zm4 2zm0 0h2-2zm-8 73zm31-65h-1 1zm-65 104v-1 1l-2 2h1l1-2zM307 373c2 0 4 2 5 6l2 9-2-3 2 5v1l1 1v2l1 5v3h-1 1l-4 1c-4 2-4 2-5 0v-1l-3 1c-2 0-3-4-3-6v-4l-1-1v-2c-1-3-1-3 2-3l2-3-1-3c0-5 2-8 4-8zm0 30h5l1-1h-6v1zm6-1h2-2zm267-13h1-1zm1 0zm6 5zm-26 0zm39 2-1 1v3l-1 3v5l-1 2v1c3 1 3 3 2 4l1 1zm-5 24-1 1-1 1 1 1 1-1v-2zm1 14v1-1zm-19 7v1a7 7 0 0 1 0-1zm-7 1v1l1-1h-1zm6 3zm1 4zm-3 35-2 1v1l3-1-1-1zm2 1v1-1zm-5 9a9 9 0 0 0 1 0h-1zm1 0v1-1zm2 6zm-6 4zm-37 38zm0 0h-2 2zm0 1h-1l1 1h1l-1-1zm-1 0zm-4 1zm27 0-1 1a40 40 0 0 0-2 1h-1l2 1 2-3zm47 7h-1v2h1v-2zm-292 18h50l1 1v-1h7l3 1h88l9 1h-1l-2 1 3-1h5l3 1 2 1h3s1 0 0 0h-2v1-1c1 3 9 9 2 9h-3l-2-1h-2l-1-1h-8l-6-1h-27l-2 1-9-1h-51v3l-1-3c1 3 1 3-2 3h-4c-1 2-2 3-5 3l-10 1h-38l-3-1-2-1h-3c-5 0-5 0-4-5h-2l-9-1h-3c-9 0-9-9 0-9h3l9 1 9 1 5-2zm8 17v-1h-1l-1 1h2zm43-16v4-4zm-1-1c-2 0-1 2-1 5l1-5z"/>
    </clipPath>
  </defs>
  <path d="m554 17-2 2-3 4-3 2c-2 4-15 14-18 14l-3 1-14 2-18 1c-3 1-5 0-5-1h-2l-28-5-20-15-4-3c-1-1-2-2-3-1s9 15 19 26c2 1 3 4 3 5l2 1 1 1 4 3 4 2-2 1-7 3c-5 5-7 5-8 1l-2-2v2l-5 10c-8 17-8 39 1 49 7 8 9 7 3-2-5-7-5-7-2-7l2 1c-2 1 1 5 2 3l5-1c3-1 3-1 1 1-2 3-2 3 1 1h7c3-2 3-2 1 1-1 2-1 2 2 1 2-1 2-1 2 1v1c1-1 3 0 4 2l5 3 6 2h4c2-1 1-2-1-2l-5-2-3-2-2-1-2-2c-1 0-2 0-2-2-1-2-2-2-3-2h-2c1-4-2-7-5-6-5 1-5 2 0 3 3 1 4 1 2 2-2 2-5 2-2 0 1-1 1-1-2-1-4 1-12-1-12-3v-2l-3-4c-4-5-4-10 1-5 7 7 12 10 14 9 3-2 1-4-3-4-3 0-3-1-2-2l1-2c-2-2 0-2 5 1 4 3 9 3 9 1l-2-1c-2 0-4-1-5-3s-4-3-8-3l-7-2c-1-1-1-1 1-1h2c0-1-1-2-3-2l-3-1h4c6 2 6 2 6-2 1-3 6-9 8-8l3-1c1-2 2-2 5 2 2 2 6 4 9 4 6 1 7 3 4 7-3 3-5 3-2 0 2-2 0-5-4-5l-6-2c-8-4-12-2-6 4 3 3 0 3-4 0h-3c0 3 6 5 11 5 5-1 5 0 0 3-5 2-3 3 3 0l4-1 1 3c1 1 1 2-2 3h9c3 0 6-2 3-3v-4c3 0 11 10 11 12 0 3-7 7-11 7l-2 1 6 1h6l2 2c2 0 3-1 3-2h1c1 3 7 1 6-1l-2-2c-3 0-6-4-5-7 0-2 7-9 9-9l-1 8 2 1 8 1c2 2 2 2 1 0 0 0-2-2-5-2-4-2-4-2 2-1h5l-3-4-4-6c-3-2-2-3 2-2 2 1 3 1 2 2s7 6 11 7c5 1 7 5 3 6-2 0-2 1-2 2l-2 1c-6 2-3 6 4 6v1l1 2c3 0 7 5 4 5l-2-1-6-4c-5-4-10-5-8-2l-2 2c-2 0-3 1-3 2l-1 1c-1-2-4 3-3 6 0 3 4 3 7 0 1-1 3-2 4-1l-1-2c-3-6-1-8 4-4 1 1 3 2 4 1 5-1 4 7-1 9a218 218 0 0 1-78-2c2-3-2-2-5 1h-2l-1-2-3 1c0 2-1 2-3 2h-2c1 1 0 1-1 1l-4 4c-4 11-5 18-5 38 0 6-3 13-6 15-1 2-13 24-13 27v5c-1 3-1 4-2 2s-2 0-1 4l-3 4-2 3-2 4-8 21-4 11c-3 9-3 13-1 13v-2c0-2 0-2 1 0 2 4 2 4-1 4l-3 3 1 3c2 0 1 15-1 16l-1 3c1 3 8 4 8 1h-3c-3 0-3 0-1-1l1-6c0-3 0-4 2-3l3-1h2l2 2c3 1 3 1 3-2 0-5 0-5 2-3s2 3 1 3l-2 3-5 1h-5l4 2 2 1c0 1 2 2 5 1 3 0 4 1 4 2h1l4-1 1-1c0-1 1-1 2 1 4 4 1 6-6 5l-13-1-10 1c-1 0-2 1-2 5l-2 14v3l1 7 7 25 2 4c0 3 5 14 9 17 2 4 8 6 6 3l-1-5c0-5-2-12-4-12l-1-3c0-5-4-10-5-9l-2-2-2-5c-1-1-1-2 1-3 1-1 3-3 3-5 1-5 5-7 8-7 4 1 8-3 7-6v-1h3l3 1c2 2 2 2 0 5l-3 5-1 3h1c1-1 2 0 1 2-1 6 4 1 7-7 4-9 3-16-1-10-1 1-1 1-1-2 0-5-2-8-3-6s-14 2-19-1l-8-2c-4 0-5-1-4-3 1-3 3-3 3-1s2 2 8 2l14 1c7 0 8 0 12-3l6-4v2l-2 5 1-1 1-1 1 1c-1 1 1 1 4 1s4 1 3 2c-3 4-3 6 1 4h2l1 2v6c-1 0-2 0-3-2-1-1-2-2-2 0-1 1-2 1-4-1s-5-3-4 0v6l2 3v2c3 1 2 3-1 2s-4 3-1 4v7l-1 6 4-2 3-3c-1-1 0-2 1-2l3 3c1 3 1 3 3 1 3-3 5-2 5 1l3 3 2 2-2 2c0 2 0 2 2 0 2-1 2-1 1 1s-3 3-9 2c-3 0-4-1-4-2 1-1-3-4-4-3-2 3-2 6 1 6 2 0 2 1 2 2-2 1-12 0-12-2l2-1 1-2c-1-1-6-2-9-1-2 1 4 7 7 7l4 1-4 1h-4c1 3-2 7-4 6l-2 1-2 1c-1-1-2 0-2 1-2 4 6 2 27-8l14-7 8 1a453 453 0 0 0 70 7l31 3h3c7 30 77 1 10 1-7 0-7-1-3-7 3-3 4-7 4-10l3-9 2-5v-2c2-3 1-4 0-7-2-1-2-3-1-2l1-1 2-1c3 1 3-1 1-2l-1-3v-11c2-1 2-2 0-3-2-2-3-10-1-43l-1-21-1-4-1-4-1-5-3-5-1-2-2-7-3-6-5-9c-9-14-10-20-11-45-1-23-3-33-7-36-3-1-2-4 2-10 7-9 8-38 1-48-3-2-4-6-4-9l-1-5c-3 0-3-1-1-2v-2c-2-2-2-4 1-5 2-1 6-7 5-9l-2 3-2 2v-2c0-1 0-2-2-2s-2-2 2-6c6-5 14-15 14-17l-1-1zM422 319v2-2zm0 2-2 7 1-2c0-2 1-2 1-1 1 2 5 0 4-2l-3-1c-1 0-2 0-1-1zm52-274c1 0 5 6 5 8 1 2 0 2-1 2-1-1-3 0-4 1l-4 2-5 3-5 4-2 2-5 7-5 7h-1c-2-1-2-3 0-3l2-1v-2l2-2 1-3v-2l2 1c2 1 2 1 1-1 0-3 0-3 3-4s5-3 2-3l2-2c2-1 4-2 4-4l2-2c3 0 4-1 3-3l1-3 1 3 2 3v-4l-2-4h1zm12 4 6 6c3 3 4 10 1 7l-3-6c-2-4-2-4-1 2l1 7c2 1 2 4 0 5v5l1 4 1-4c1-4 1-4 1-1l2 4 2 2 1 1c2-3 5-2 5 2s-2 7-3 4c-1-1-2-1-4 1l-4 1c1-3 0-4-2-3-1 0-2 0-1-2l-1-3-3-5-7-7c-4-1-7-7-3-5 2 1 4-1 2-3v-2c1-2 3-1 4 4 2 6 5 4 4-3l1-5v-6zm32 0v1h2l1 1c-1 1 1 3 3 6 6 5 7 9 5 12s-2 3-5 0l-4-2c-8 4-11 7-12 11-3 7-4 3-3-11l-1-14-1 1c1 3-1 5-4 3-2-2-2-6 0-5 1 1 2 0 2-1 2-2 7 5 7 11 1 6 2 7 4 3v-3l1-2c1-1 1-1-1-3-4-2-4-5 0-5l5-2 1-1zm14 2 1 2 2 4c4 3 2 4-3 1-4-2-6-5-2-3 1 0 2 0 1-2l1-2zm-65 12 3 2c2 2-1 5-5 5-3 0-3-1-1-4l3-3zm52 7h1l2 3c0 4-3 3-3 0v-3zm-48 0c2 0 2 1 3 4 0 4 0 5-4 2-2-2-3-4 0-5l1-1zm42 3 1 2 3 3 2 1c0 1-1 2-2 1l-4-1v-6zm-34 1 1 2c1 1 0 3-1 3-3 2-4 1-2-3l2-2zm49 0v1l4 2c4 1 4 1 3 4-2 3-1 5 1 2 1-2 2 2 1 7l1 1 2 1c2 4-12 4-15 0l-2-3 3 1c3 3 7-1 6-5l-2-3v-1h-4c-7 3-15 4-15 2l4-1c3 0 5-1 7-4l6-4zm-33 18h5c2 1-1 6-3 6l-1-2c0-1-1-2-3-2l-2-1 4-1zm38 15 4 1 3 2c0 2-5 1-7-1v-2zm-91 21-1 2c-1 2-1 3 1 2 2 0 3 1 3 2s-2 2-5 2l-5 1 1 1 3 1c3 2 9 2 11 0h6c2 1 5 2 6 1l3 1h13l8 1 7 1c0 1 2 3 5 4 2 1 3 1 2 2l-4-2h-3c0 2 0 2-2 0h-2l-2-1h-4c-2 1-2 1 0 1l2 2h-3l-16-1-13-1-2-1h-3l-2 1-2-1-3-1c-2 1-2 0-2-1 0-2-1-2-2 0l-3 2v-2c2-1 3-5 1-4-5 3-4-2 1-7l6-5zm54 7 3 1c3 2 2 2-3 2-3 0-3 0-1 1 4 3 28 7 25 4l-7-1-6-2h4c3 0 4 0 3-1h1c2 2 4 2 3 0s5 2 7 4c1 2 2 2 2-1 0-2 0-3 2-1h3c0-1 1-2 2-1h2c-1-3 0-4 2-2 3 3-2 8-6 7-2-1-1 2 1 3 5 2 3 6-2 5l-6-2-6-1c2 2-3 1-8-1-5-3-6-4-5-2 1 3-1 2-7-2-5-4-8-5-12-5-3 1-7 0-8-1h-5c-4 0-4 0-2-3l3-1 10 1a52 52 0 0 0 11-1zm-64 16 17 2a258 258 0 0 0 27 4c0 1 4 1 10-2 3-1 4-1 2-3h2a458 458 0 0 0 24 5l4 1 20 3c7 0 8 5 2 6h-12l-9 2h-5l1-4-5-2c-3-2-5-2-5-1l2 1 2 2 2 1 2 1c0 1-1 2-2 1l-6-2-4-1c0-1 0-2-2-2-3 0-5-4-3-5 1-1 2 0 4 1 1 2 2 1 0-2-1-1-12-1-12 1h2c1 0 3 1 3 3l3 3c1-1 1 0 1 2 0 1 0 3 2 4v4c-2 3-2 4 0 5 2 0 2 0 2-2l3-4 4-3h4l7 2c18-2 20-1 19 1 0 2 0 2 1 1h2c0 1-4 3-6 2l-5 1h-7c-3-2-11 0-11 2l-3 4h-3c1-2-3-1-5 1-1 1-1 2 1 2 1 1 1 2-1 3l-3 9c0 8 0 8 2 6s3-2 4-1v2h-1v-2c-3 0-4 8-1 10v2l-2 1-1 1 1 2c3-1 4 7 2 10-2 2-3 2-4 1 0-1-1-1-1 1 0 1 0 6-2 10v8c1 1 2 0 3-5 0-1 1-3 2-2v-4c0-4 0-4 1-2s2 2 4-3c3-6 3-6 4-5v4l-1 2c1-2 3-3 5-3s2 0 1-1c-2-1-2-1 0-3 2-1 2-2 0-4-3-3-5-3-5 0l-1 2v-3c0-5 2-7 6-6l3-1h-7c-2 0-3 2-3 3 0 2-1 3-2 3-2 0-1-1 2-7 2-5 5-7 3-3l1 2 1-3c1-5 7-5 21-2l13 4 5 10-1 5c-1 8-2 11-3 8s-1-3-2 0l2 5v2c-2 0-1 1 0 3l1 2c-1 0-1 1 1 2l5 2c2 0 2 0 1-1l-3-1v-2c0-2 1-2 2 0l3 2 3 3c2 2 2 3 0 1l-3-1c0 1-1 2-2 1h-2l4 2c2 1 3 2 2 5 0 2 0 3 2 3l2 2h-2l-1 2-1 1-1-2-1-1-1 1-1 3-2 1c-2 0-2 1-2 2l2 1 2 2c1 4-1 5-3 2-2-2-2-2 0-1s1 0 0-1c-3-3-3-3-2-5 2-2 2-3 1-3l-4-8c-1-6-3-9-4-8l-1-4c0-5-2-6-9-7-8 0-7-1 1-1 6 0 7-1 7-3l1-4-3-6-4-2c0 2-1 2-2 1-3-2-3 0-1 2 2 1 2 2 0 3s-2 1 0 1c3 0-1 4-5 4l-7 2c-4 3-5 3-4 0 0-2 0-2-2 0l-3 3 3 1h5l4-2c3 0-1 8-6 11l-4 2 2-4c1-2 2-3 1-4s-6 3-5 4l-1 7-1 7-2 2c-2 1-2 3 1 2l-1 3c-2 1-3 4-3 6l-1 5-2 8-1 8-2-6c-4-14-5-19-4-22l1-4 2 4 2 4-1-5c0-4-1-6-3-6h-1l-1 6c-3 5-3 20 0 22 1 1 2 1 1-1v-1c2 2 4 8 2 8s-2 5 0 10c1 4 2 4 3 2l3-4 1-3 5-4 4-1 4 2 5 1c1 2 4 1 7-2 2-2 6-3 16-2h5l-2 3c-4 6-9 8-12 5s-13-2-12 0c1 1 0 1-1 2l-2 3c0 2-3 2-4 0l-4-2c-3 0-3 0-1 1v1l-2 2c0 2 5 5 8 4h8c7 0 7-2 1-4-7-3-5-3 3-1 8 1 11 7 6 10-2 1-2 1 0 1 1 0 1 1-1 2l-1 2c2 4-4 2-6-2-4-4-13-5-15-1h-1c0-1-1-2-4-1l-3-1h-3c-6 4 2 7 13 5 4-1 5-1 7 6 0 3 2 3 7 2h6l-2 4-2 2-3 6-2 6c-1 0-6-6-5-8 0-2-8-10-13-10-6-2-6 1 1 7l5 2c1 0 2 1 2 3l1 3 3 1h2l1 3v5l-3 1-1-2c0-1-1-2-3-2l-3-2-2-1-1-1c0-2-5-5-8-5l-1 3c1 1 0 2-2 2l-2-1-2-1c-3 0-3 0 0 1 3 2 3 4-1 4-3 0-4-1-3-2 1-2-4-3-8-1l-2 4v3l-1-4c0-3-8-2-15 2-6 4-11 5-10 1 0-9-1-13-6-20l-4-8c3 0-5-9-7-9-3-1-3-1-1-1l2-2h-3l-4-3c-2-2-2-2 1 0h5c1-1-2-6-4-6l-1-3c0-4-5-6-8-4-1 2-2 1-3 0-1-3-4-3-6-1v-1c1-3-2-3-4 1l-4 4c-2 0-3 1-3 2l-1 1c-1-1-2-2-1-3l-1-2v-1c3-2 0-9-4-10-3-1-4-1-2-2s2-2 0-7c-1-4-3-6-4-5l1-2v-2l-1-1c1 0 2-3 1-6l1-11 2-10 3-6 1-3c1-5 1-6 2-5v6l-2 3v8c1 1-2 7-3 5l-1 1c0 2 1 2 3 0h2l-2 3c-1 1-2 2-1 3l-1 2-1 3c0 3 2 9 4 9v2h-2l-1 2c0 1 1 2 2 1 2-1 7 4 7 7 0 1 3-2 3-4l-2-1c-1 1-2 0-2-2 0-6-1-8-3-10v-2l1-3c-1-2 1-3 3-1v2c-1 0-1 1 1 3l3 7c0 3 1 5 3 5l1 1-1 1-1 2h2c2 0 3 3 2 4l-1 3v1l1-2c0-3 3-2 5 0l1 4c-1 1 3 4 5 4 3 0 2-2-1-3-3-2-2-2 3-2 3 0 3-1 5-2l1-4c3-8 9-15 11-14l2-2 6-2c7 0 8 0 7-2l-1-1-2-1c-1-2-1-2-2 0-1 1-1 1-2-1l-4-2-2-1 8-1c6 0 13 2 7 2v1c2 1 2 3 1 6 0 3 0 4 1 2 1-4 9 8 8 12v2l1 2 2 2c1 0 2-12 0-14l-1-2-2-4-1-8c0-6-2-13-3-13-1 1-2 0-2-5 0-2 0-2 0 0l-2 2c-2 0-5-5-4-6s-4-5-6-4c-1 1-1 0 0 0 0-1 0-2-2-2-3 0-3 0-1-1 2-2 4-1 8 2l6 3 2-1 2-2h-1c-1 0-3 0-4-2-1-1-3-2-4-1s-8-3-7-4h-4l-5-1-2-1c-2 0-3 2-1 3s2 5 0 5-8 5-7 6c2 1 2 6 0 7l-2 2-4 5-3 5-1 3v3c1 1 2 1 3-2 0-2 3-5 5-6 6-4 10-8 9-11-1-2 0-2 5-2 6 0 6 0 7 3 0 3-1 4-4 1-1-1-1-1-1 1l4 2c3 0 4 0 3 1l2 2c3 0 2 3-2 4-3 2-4 2-4 0-1-2-6-2-9 1l-3 2-2 1c-1 1 0 1 1 1 3-2 3 1-1 4l-3 6c-1 6-5 14-6 14-2 0 0-13 2-17 2-3 3-10 1-7l-3 2-2 4-2 3c-1 1-1 0-1-2v-5l-2 2c0 2 0 2-1 0-2-1-2-1 0-2s2-4-1-5c-2-1-2 0-4 7-1 8-3 7-3-1-1-10 1-17 3-10 0 2 2 2 4 3 3 0 4-1 3-3 0-2 0-4 2-5 4-3 5-9 2-9-1 0-2 1-1 2l-1 2-1 3-2 2v-1l-1-2c-1-1-1-2 1-4 2-1 3-3 2-3 0-1 0-2 2-2 1 0 2-1 2-3l1-3c2 1 8-7 7-9 0-1 0-2 2-2s2 0 0-1c-5-1-12 7-12 14 0 3 0 3-2 1h-1c0 1-1 2-3 2-3 0-3-1-1-3l2-3h-1c-1 2-1 2-2 0-1-1 0-2 2-2l2-1c0-1 0-2-1-1-1 0-2-2-2-7 0-6 0-7 2-7s2 0 0-2c-2-1-2-8 0-11l1 5 1 5 1-5 1-4 1 3v4l2-2 1-3c1 0 2-1 2-3l3-3 6-2 5-2c2 0 2 0 0 1-3 2-2 5 1 3 2 0 2 0 1 2l-3 1-2 1-8 5c0 1-1 1 1 2 2 0 1 1-2 1-6 0-10 3-11 7-1 7 6 5 8-1l4-3 4-2 5-2 2-1c-2-2 10-5 16-4h5l-5 1c-4 1-4 2-2 2l4 2 4 1c3 0 6 3 8 9 1 3 1 3-2 0-3-4-4-4-4-2l2 5c2 3 2 3-1 3-4 0-6-2-5-6 0-1-1-2-4-2-9 0-11 0-10-2 1-1-4-2-7-1-5 1-2 4 4 4l3 2 6 1c3-1 4 0 5 2 0 2 2 3 3 3 4 0 11 8 9 10-2 1-2 1 0 3l2 6 1 5 2 3c2 3 1 4-1 4-4 0-4 0-1 2 1 2 2 2 3 1s1 0 1 1l-2 4c-2 0-2 1-1 1l1 2c-1 1 0 3 1 4 6 5 10-21 4-28l-4-5c0-3-1-3-2-1s-1 2-1 0v-7c-1-4-1-4 1-2s3 3 2 4 5 10 6 10c1-1 2 2 2 6 1 8 3 8 3 0a319 319 0 0 1-2-11c0 4-2 3-2-1l-4-8-3-6c0-4-6-14-9-18-4-4-4-4 0-3 2 0 2 0 1-1-1-2-8-2-15 0l1-1c8-4 17-5 20-2 3 2 3 3 1 3-3 2 0 5 3 5 5-1 0-12-6-12-1 0-2-1-2-3-1-2-1-3-3-1h-2l-5-1c-7-1-5 3 2 4h6l-5 1h-8l-4-1c-1 1 0 1 1 1l2 1h-4c-4-2-5-2-1-4h-3c-4 0-9 1-11 3-4 2-5 2-7-1s-2-6 0-6v2c-1 1 4 0 6-2l7-1h6-2c-2 0-3 0-2-1 1-2 0-2-2-1l-2-1h-4c-6 2-8 1-4-1 4-3 11-4 12-2h-3l10 3c13 2 21 5 22 7l2 1c5 0 12 16 9 17l-1 4c1 3 1 3 3 2h4l-3-10c-4-9-4-9-2-8 4 3 10 21 7 21-2 0-2 1-1 3 4 6 5-6 1-15l-4-11-1-4-3-3-2-6 1 1c0 2 1 1 2 0l-1-4c-1-2-2-2-2-1-1 2-6 1-7-2-3-6-21-11-40-12-5 0-13-2-8-2 1 0 2-1 1-3s-1-2 2-3zm1 52-1-1c-1 1-2 1 0 1h1zm-1-1v-1 1zm1 86c0 1 1 1 2-1l-2 1zm2-1 2-2-2 2zm2-124 2 1h6c4-1 5 0 4 1v2l2-1 1-1 7 2 8 2h4c1-1 5 3 5 5l-2 2 1 1h4l6 9-4-2-6-3c-3 2-6-1-6-5l-2-2c0 1-1 1-3-1l-10-2-7-1v-3h-2l-2 2c-1 0-2 0-1 1l-3 2-4 1c1-1 0-2-1-2-3 0-2-2 1-4l3-2h-3l-4-1 4-1h2zm87 20h1l7 1 5 1 2 1 3 2c3 2 2 2-2 2h-4l4 2c5 0 9 4 6 6-1 2-2 2-3 1v-3l-2-1-5-2-6-2c-4 0-5 0-4-2 0-3 0-3-4-3-3 0-3 0-2 1 2 1-3 7-6 7l-4 2c-1 2-2 2-2 1l3-3c3-2 3-5 0-4-2 1-2 0 0-3s9-5 13-4zm-18 6v2c0 2-1 3-3 3-2 1-3 0-3-1l2-2 3-1 1-1zm17 5h3l2 4c-1 1 0 2 4 2h3l-2-2c0-1 4 0 9 3l4 2h-16c3 1 2 3 0 3-4 0-6-3-6-6l-2-2-2 2-1 2c-3 0-1-6 2-8h2zm-7 2-1 2-5 3-4 2 5-3c2-3 4-4 5-4zm-5 7c1 0 0 2-3 5-2 2-4 4-5 3s6-8 8-8zm45 35h1l2 5c0 3 0 4-2 3l-2-1c1-1 0-2-1-2-1-1 0-1 1-1 2 0 2-1 1-2v-2zm-78 1 2 2c2 2 3 4 4 10 0 6 0 7-1 6l-2-5-1-2v-2c1-2 1-4-1-5l-2-4h1zm53 7 4 2 3 3 1 4c0 2 1 3 3 4 2 0 3 1 3 2v3c2 1 2 7 0 8-2 0 0 5 3 4 2-1 2-1 0 1l-2 5c0 6-3 5-4-2l-1-7-2-5c-3-4-6-6-6-3 0 2 0 3-1 1-2-1-1-2 1-3s2-1 0-2c-4-2-9-2-7-1l2 3 1 4c1 3 0 3-3 3-4-1-4-1-3 1l4 2 3 3c1 3 1 3 3 1 1-2 8 2 7 5l3 5 2 4-3-1-3-1c0-2-5-7-12-12-4-3-8-5-8-3l2 1 4 2c1 2-2 4-5 3-1-1-1 0-1 2l1 4v1c-2 0-3-1-3-4v-4l-3 3c-4 6-8-1-3-6v-2l4-4c3-2 4-4 4-7s1-4 4-6c4-2 4-2 2-3l-1-1 1-2c0-2 2-4 4-4l2-1zm34 25h1l2 4c0 3-3 6-4 5h-1l1 3 1 2-1-1c-1-1-3-2-4-1s-1 2 1 3c2 3 6 3 6 1 0-1 0-2 2-1 6 2 0 8-10 9l-6 1c-1 1-1 1 0 0l-1-2v-5h1c4 0 6 0 6-2s-1-2-2-1c-2 0-1-1 1-5l5-5c1 1 3-3 2-5-1 0-1 0 0 0zm-42 11h3l4 2v1l-2 3c0 3-4 2-5-1-2-3-2-5 0-5zm-135 1 1 3c-1 2 3 4 4 3l2 1c0 4-8 1-8-4l1-3zm174 15 2 2c0 2 1 2 3 1l4 1c0 2-5 4-10 3-5 0-8 1-7 3h5c3-1 4 0 5 2l2 3c2 1 3-1 0-3-1-1-1-2 1-1l6 1c2 0 3 1 3 3s-2 3-3 1c-2-2-4-2-3 1 1 2 0 2-3 0-4-2-8 0-6 3 4 4 0 2-5-2-5-6-7-6-12-1-1 2-1 2 1 4 2 3 2 3 0 2-2 0-2 0-2 2s1 3 4 3h6c2 0 2 0 2-2s0-2 2-2h2c0-2 2-2 4 0l5 4 3 2h-3c-1-2-9-2-9-1l5 3c4 2 4 3 2 3l-3 1 4 1c1-1 3 0 4 2s1 3-2 2l-3 1h-4c-2 0-2 0-1 2l1 7c1 6 3 8 5 6 1-2 1-3-1-5l-1-3c2 0 5 6 4 8v3c1 1-4 9-6 9l-2 2c-1 3-6 3-9-1l-5-3c-7-1-11-11-4-11 2 0 2 0 1-2l-5-1-2 1-5 5-1-3-1-2c-3 1-2-3 0-4l5-1c2 0 2 0 2-2-1-2 2-2 4 0h1l-1-4c2-3 2-5 0-3-4 3-6-1-3-5s5-13 2-15c-2-2 0-9 3-8 2 0 3 0 2-1l-2-1-3-1v-1h8l2-1c2 0 2-1 2-3-1-3 2-4 5-1 2 2 5 0 4-2-1-1 0-1 1-1zm-145 3h1c2 0 3 1 2 2l2 1c2-1 2-1 1 1l1 1c2-1 3-1 3 1h-10l-1-3 1-3zm149 20 4 1 3 3h-1l-4-1-3-2 1-1zm-182 1c3 0 3 0 2 1-2 1-2 2-1 2 1 1 2 0 2-1l3-2 2 2c-1 1-1 2 1 1 1 0 2 0 2 2s-7 3-12 1c-3-1-2-6 1-6zm15 4 3 3v6l-3 1-8 2c-9 5-11 5-11 1 1-3 4-6 4-3h2c1-1 3-2 5-1 3 0 8-2 8-4h-2v-3l2-2zm36 9 2 1 1 1c-1-3 1-2 5 3 5 5 6 6 3 5l-2 1-2 1-2-2 2-1c3 1 2-1 0-3l-2-1c0 2-8 5-9 4l1-2c2-1 2-2 0-3-2-2-2-4 1-3 1 1 2 0 2-1 0 0 0-1 0 0zm137 8v1l-1 4c0 2 0 2-3 0-2-2 0-5 4-5zm-66 7h1l1 2-3 2-2 3h2c1-2 1-1 1 1-1 2-1 2-3 1h-3l-2 2-2-2v-3c-2-1-2-3 1-3l3 2c1 1 1 1 3-1 0-2 2-3 3-4zm2 5 1 1h2l3 2c1 1 2 3 1 4l-2-2c-2-2-3-2-4-1-1 2-1 2-1 0v-4z" clip-path="url(#a)" transform="scale(.75)"/>
  <path d="M385 42c-1 1 0 2 1 2l1 3c0 2 0 2 2 1l2 1v1h5c0-2-4-5-6-6l-4-2h-1zm-19 84c-2 1-1 2 1 2l4 4 1 3v-3l-2-5c-1-2-2-2-2-1h-2zm6 13c-1 2-1 3 1 2l1-2c0-2-2-3-2 0zm-14 18 3 6v2l1 1 1 2 2 2c1 0 2 1 2 3l1 2v-4l-3-6c-4-10-4-11-7-12l-3-1 3 5zm-21-2 1 1h3v1l-2 1h5l2-1-2-1-2-1h-5zm49 3v1l2 1 2-1c3-2-1-3-4-1zm6 7v1l-1 2-2 5-1 3v1l1-2 3-5 2-3h2l2-1 3-1h1c0-3-8-2-10 0zm14-1 2 3 1 3 1 3h1l1-5c0-2 0-3-2-4h-4zm-75 1c-1 2 2 3 9 2 2 0 2 0-1-2h-8zm46 18c-2 3-2 5 0 5v-1l1-3v-2c0-1-1-1-1 1zm-6 7c-3 2-2 3 1 3h3c1 1 1 0 1-1-1-3-3-3-5-2zm-28 13-1 2v1h-10c-2 2-1 3 1 3l2 1c1 2 8-2 9-4l1-2c0-2-1-3-2-1zm21 3c-1 5-1 5 2 6v-2l-1-4v-3l-1 3zm-19 4c-3 1-7 5-6 5h-2c-3 0-8 3-8 6l-2 3c-2 3-1 6 3 4l3-2c1-2 12-7 13-6l5 2c3 1 8 4 5 4l1 2 2 4 1 6h-1l-4 1-2 2c-2 0-2 1-2 2 1 1 0 3-3 5-5 5-5 6-3 8s3 2 2-1l1-1 1-2 3-2s2-1 2-3c4-7 7-7 8 2 0 6 1 8 2 8l2 1h1c1-2 2-2 3-2 2 1 3-5 4-12 0-8 0-8 2-8h2c-1-3-6-2-10 2-3 3-4 4-2 3l2 1-2 1c-2 0-3 0-3-4l-1-5-1-6c1-6-1-9-3-8h-1c0-2-6-8-7-8l-1-1c-1-2-2-2-4-1z"/>
  <path d="m360 215 1 4 3 2c2 1 2 1 2-2-2-8-4-10-6-4zm-56 8 3 1c2-3 1-4-2-4h-3l2 3zm40 7h-3c-2 0-9 6-9 8 0 3 2 3 5 0l3-2 3-1 7-3c2 0 3-1 2-2h-8z"/>
  <path d="M346 236v3l-4 1-2 1-1 2c-2 1-3 5-2 6 3 2 9-1 9-4l2-3 1-2v-2c1-2 1-2-1-3-1-1-2-1-2 1zm7 18-3 2-2 2c-1 2-1 2 1 1l3-2 1-1h2c2 1 3 0 3-3 0-2-4-2-5 1z"/>
  <path d="M345 262v3l5-2 4-3h-4l-2 1c0 1-1 1-2-1-1-1-1-1-1 2zm62-13c-2 2-2 2-1 3 1 2 3 0 3-2v-1h1c0-3-1-2-3 0zm7-1c-2 1-2 3-1 2l2 1c3 2 5 2 5 0l-1-1-3-1-2-1zm1 13c0 2 3 5 5 5l-1-2-2-3-1-1-1 1zM124 23h1zm287 0-3 6 3-3c1-4 1-4-1-3zM43 47zM30 57zm-1 10zm-2 0h1-1z"/>
  <path d="m159 94-12 8-11 10-9 7-8 5-21 1c-14 0-24 1-32 3l-12 3-10-5-12-8c-3-3-9-6-14-8-3-1-2 2 7 18 11 20 11 24 6 30-3 4-5 15-4 24v8c-2 2-2 4 2 15l2 11 2 6 3 8c1 3 1 4 4 4l7 2c3 1 3 1-2 1-5-1-8 0-10 5 0 3 0 3 2 3 1 1 1 1-1 2-3 1-4 2-2 2v2l-2 1 3 1c3 0 3 2-2 7s-5 7 0 7c2 0 2 0-1 2s-4 4 0 4c2 0 2 1 0 2-3 2-3 5-1 5s1 5-1 7c-2 1-2 3-1 11l4 1c4 0 5 1 3 3s-2 12-1 14c4 3 6 2 4-3-2-2-1-3 0-5l1-3 3-1c2 0 2 1 2 3v2c1-1 4 1 7 4 6 6 10 7 12 4 1-2 2-2 5-1 4 1 4 1 3-1 0-2-2-3-3-4-2 0-3-1-1-2s-3-4-10-6c-5-1-7-7-3-8l5-1 4-1 1-1-9-1c-8 1-9 1-10-1s-1-2-3 0c-2 3-2 3-5 0-5-4-5-7-1-7 3 0 10-3 10-4h9c1 1-3 5-5 5-4 0-6 0-5 1l5 2c2 0 3-1 3-2l1-1c2 0 3-1 3-3 1-2 2-2 3-2 2 1 4 0 5-2 2-2 3-3 8-3l5-1 6-1 4 1c2 0 3 0 2-1 0-2 0-2 2-2l2 2c0 2 5 3 6 1 0-2-1-2-2-2-6 0 1-2 9-3 7 0 11-1 11-2 2-2 4-3 3-1 0 1 1 2 4 2s4-1 2-2-2-1 9-2l4-1c0-1 0-2-2-1-3 1-2-2 1-4 2 0 2-2 2-2-1-2 5-3 10-2 2 0 3 0 2-2s7-7 11-7c1 0 2-1 1-2-1-3 4-5 6-3 4 5 0 14-7 14-5 0-8 3-4 3h4l-4 1-10 1c-5-1-7 0-7 1a1245 1245 0 0 1 29-3h3c2 1 2 2 0 1-3-2-4 0-2 2s2 2-1 1-7 0-3 2h-4l-7 1c-1 2-12 2-15 1h-2c-1 1 4 3 11 3 4 0 4 0 2 1h-6c-3 0-4 0-4 3s0 3-4 3c-3-1-5 0-5 1 0 0-1 2-3 2-3 1-2 1 2 1l5-1h6c1-1 5-1 6 1h3c1-1 1-2-1-3l-2-2h6c5-1 8-2 14-6 7-3 13-3 12 1l2 3c2 0 3 2 3 3s0 3 1 2l2 5c0 6 3 11 4 10l3 1c1 2 1 1 2-1 0-2 1-3 2-3 3 0 4 2 1 4s2 6 6 5h2c0 1-6 3-8 1-1-1-2-1-1 1 1 3 1 3-1 0l-2-1c0 2 4 5 5 4l2 1-2 1v1c1 2 6-2 6-4l2-3c1-1 2-1 0-3-1-1 0-1 2-2h2c-1 2 4 8 6 8l-1 2-3 4v1c-3 1 1 4 3 3 2 0 3-1 3-2l1-1c2 0 2-1-1-1-2-1-2-1-1-2 2 0 3-1 3-3 0-1 0-2 1-1 0 1 1 2 3 2s2 0 2 2c-1 1 0 2 3 2h5l-3 3c-3 2-8 2-7-1v-1c-2 0-3 2-1 3l-1 3c-2 1-2 2-1 3l1-1c0-2 10-3 12-1 1 3 6 3 6 1l-3-1c-3 0-3 0-1-2s3-2 3-1l3 1 2 2-1 1c-1-1-1 1-2 2v4l-2-1-4-1 3 2c3 3 6 4 5 2 0-2 7-3 8-1h-1l-1 1c1 2 0 3-3 3h-4l4 2c4 2 6 4 3 4l2 2 3 3h-2l-1 1c1 2-3 3-10 2-1 0 0 2 3 3l5 5c0 2 0 2 2 0 2-1 2-2 0-3-1 0-1-1 1-1s2 0 2-3c-1-2-1-2 0 0l3 2v-5c1-2 5-1 5 1l-2 1c-1-1-2 0-1 1l-1 3c-1 1-1 2 2 3l1 1c-1 0-1 1 1 2l1 2c-1 0-2 1-1 2l-1 3-1 2h-7c-1-1-1-1-2 1 0 1 0 2 2 3v2l-1-1-5-1c-5 0-5 0-1 1 3 0 4 1 4 3h-3c0 1 0 2-2 2-2 1-3 1-1 2 1 1 0 1-2 2-2 0-4 0-5-2s-2-2-1 1l-3 3c-3 1-3 1 0 1 6 0 3 4-3 4l-6-1h-5c-2 0-2 0-1 2v3h1l9-2c5 1 8 0 9-1 2-2 3-2 4-1 2 2 8 1 8-1l-2-1c-3 0-2-2 2-4 2-2 3-2 1-3v-1c3 0 6-5 6-7s1-3 3-2l3-2c2-2 2-2 1 1l1 3v3c-1 0-2 2-1 3 1 2 0 2-3 2h-3l2 1c2 0 3 4 1 5l-1-1c1-2 0-2-3-2-2 0-3 0-1 1 1 0 2 1 2 3l-1 2h-2c-1 2-1 2 5 2 2 0 3 0 2-1-1-3 1-5 5-3h2c0-1 0-2 2-2l2 2-2 2c-4 0-1 3 2 3 2 0 3 0 1 1-2 0-3 1-2 2l-1 2-2 2c0 2-1 2-4 2h-2c1 1 0 2-2 3-3 1-3 1-3-1v-2c-1-1-3 4-2 6l-2 2-5 2c-2 1-4 1-6-1-4-2-6-2-4 1h2l1 2c0 2-1 3-5 3-4 1-7 3-7 6l4 1c3 1 3 1-1 1l-7-2c-2-2-3 0-1 3v2l5 2 1-1c-1-1 0-2 1-2 0-1 1-1 0 0 0 1 0 2 2 2v4c1 1 3-3 4-9 1-2 4-4 7-4s3 0 1 1l-2 1-1 2-2 1h4l4-4 1-1 1-2 1-1c2 0 2 0 1-1-2-1-1-2 1-1 3 1 4 0 4-1l4-3c3-2 4-3 3-5-1-3 2-3 5 0l4 3c2 0 1 0 0-1s-1-2 1-3c3-1 5 0 5 5 1 2 0 2-1 0h-2c-1 0-1 1 1 2 2 2 2 2 0 4v3c0 1-1 2-2 1l-4 1h-3c-1-2-3-2-2 1l3 2 3 1-4 1-3-1h-2c-2 2-3 2-4 0-3-4-3-3-2 2 2 7 2 7-1 7-2 0-2 0 0-1v-1l-2 1-8 1-4 2 4 1c3-1 4 0 4 1s-1 2-3 1c-10-2-14 6-5 9 2 1 2 0-1-3-2-3 0-5 3-5v1c-2 1-2 2 1 5 5 5 6 10 1 9-2-1-3-1-1 1 2 1 2 1-1 1l-3-2c-1-1-1-1-1 1 0 1-1 2-3 1-2 0-3 0-3 3 0 2 1 2 3 1h1v2l2-1c0-2 3-3 8-3 1 1 2 0 2-1 0-2 4-1 9 1 3 2 4 2 2 0l-1-2c1-1-1-2-3-2-5-1-9-7-7-10l-3-1c-3 0-4-1-2-2h7l4 1-2-3-3-3h5c4 0 5 0 5-3l-1-4-2-1c0-3 3-1 4 3l1 4 1-4c0-4 0-5 1-3s1 2 1 0l3-1 4-1 5-3c2 0 3-1 3-2l3-1 2 1-1 1h-1l3 2 2 1-2 2-2 1 2 1v1l-3-1c-3-3-4-1-1 2 1 1 1 1-2 1h-3l2 1 3 2c2 2 3 2 4 1v1c-1 3-1 3 1 2l3-2v1l-2 3-2 4c-1 1 0 2 1 3v1l-1 2c2 3 2 6 0 9-1 3-5 4-4 1 1-2 0-2-1-2l-2-2-1-1c-2 0-3-2-2-4 0-1-3-2-4-1-2 2 2 8 4 7s5 6 5 12l3 3c2 0 2 1 1 3v3l-1 1-1 2c1 1 0 2-2 2h-3l3 1c3 2 5 5 3 5l-1 3c0 3 4-2 4-5s3-6 5-5l-1 3v3c1 2-2 6-3 5s-1 0-1 1l-1 2c-2-1-6 4-5 5l3 1c4-1 5 6 2 9l-2 4-1 3c-1 0-2-1-1-2l-1-2c-1 1-2 0-2-3l-2-4v1c0 3 0 3-2 4l-3 1 5 5c2 0 2 2-1 3-1 1-2 0-4-1-2-3-13-4-15-1h-2c-2-1-3 0-5 1l-7 2-6 1h-1c-4-2-7-3-7-1 0 1 1 2 2 1 2 0 2 1 2 2 0 2 1 2 4 1 2-1 4-1 6 1l3 1c1-2 8 1 12 5 4 3 5 3 5 1s0-2 2 0c3 3 4 3 5 1v1c-1 3-1 3 1 2 1-1 3-2 4-1v-1l-2-2-2-2c-1-3-1-4-2-1-2 1-2 2-4 0h-3c-1 1-5-3-5-5s1-2 2 0c2 2 2 2 4 0v-1l-2-1 4-1c4 0 4 0 3 2l-1 2 4-3c1-2 2-2 2-1l2 1c3-1 5 2 4 9a1292 1292 0 0 1-2 7h-1l3 2 4 1c0 1-9 1-12-1-2-2-2-2-1 0l2 4c-1 2-1 2 1 1 1 0 2 0 1 1l1 2 2-2c0-2 1-2 2-2l4 1v2h-3c0-1-1-1-3 1s-2 3-1 4l1 2c-1 5 6 12 9 7h11c13 0 16 0 14-4-1-2-2-3-3-2l1 3-6-7-3-1c-2 1-2 0 0-1 1-2 1-3-1-6-4-7-6-26-3-29l1-4 1-7c2-9 2-13 0-13l1-1c2-2 3-13 1-13v-3c1-2 1-4-1-7-3-5-3-6 1-3 3 3 3 3 1-1-3-3-3-5-1-5l2 2v-3l-1-8-1-4v-2c2 0 1-4-1-9 0-2 0-3 2-3s2-1-2-6c-3-4-4-9-2-8 2 0 4 0 4-2h-1l-3-2c-1-2-5-3-7-4-3 0-5-1-5-2h2l6 1 5 1-3-3c-2-1-3-3-2-3l1-1 3 1 5 3-3-4-1-5-1-2c-2 0-2 1-1 2 0 2 0 2-3 1l-2-1c1 1-4 7-5 6l1-3c2-2 1-5-3-5l-1-3 1-4h2c3 1 2-1-1-3-2-1-2-2-1-2l1-1h-2c-3 3-5 3-6 1s1-5 2-3l3-1c2-2 2-2-1-2l-2-2c0-2-1-2-2-2h-2c1-1 3-2 5-1l3 1-3-2-2-2-1-2c-3-3-3-5 0-5 2 0 2 0 0-1s-2-2-1-2l-1-2c-3-3-4-5-1-3 3 1 3-1 0-4-2-2-2-3-1-3 3 0 2-2-1-6-2-1-3-3-3-5 0-1-1-4-4-6l-4-6-1-2c-3-2-12-11-11-12s0-2-3-4a375 375 0 0 1-25-15c-13-4-30-17-34-26l-7-10c-3-2-4-4-5-10l-2-10-2-2c2 0-2-7-6-11l-2-4-4-7c-6-7-9-12-7-12s2-3 0-5c-4-4-5-8-4-9 1 0 1-1-1-2s-3-2-3-15l-2-8 1-8 2-10 5-21c3-12 4-18 3-20l-2-1zm-6 17-1 3-2 5-1 7c0 5 0 6-3 7-2 2-2 2-1 4 2 1 2 2 0 1-1-1-2 0-2 1h-2c-2-2-6-2-6 0 0 3 3 5 4 4l-1 2c-2 3-6 1-8-3l-3-4c-5-2-14-7-12-7 3-1 7 0 11 2h4c-4 0 1-6 7-9v2c0 2-2 2-3 2s-2 1-2 3l-2 2 9 2 2-2-3-1c-4 0-5 0-3-1l4-1c2 1 2 0 2-2v-3l1-3c0-3 1-4 3-4 2-1 3-2 2-3 0-1 2-3 6-4zm-23 22zm-38-1v3c-1 3 0 4 3 5h3c-1-2 6-1 8 1l1-1-2-3-1-2 3 1c0 1 1 2 2 1s6 1 6 3l-2 1-2 2h2l3 1 6 2c4 0 7 1 7 2l3 1 1 2h-3c-3-1-1 1 6 7 2 1 2 3 2 5 0 1 0 2 1 1 2 0 2 1 2 2 0 4-13-4-13-9 0-3-7-8-12-8-4 0-5 0-4-2 0-2 0-2-1-1-3 3-2 7 2 7l6 3c6 9 11 13 14 13l7 3 3 3h-3l-4 2c-1 2-2 2-4 1-3-2-3-2-2 0s0 2-4 0a75 75 0 0 0-8-3l-5 1c-2 1-9 0-8-1l-3-4c-2-2-2-2 0-1 6 2 9 2 13 1 4-2 5-6 1-5-1 1-3 0-3-1l-2-1-1-1-1-1c-3 1-3 3 1 4 2 1 2 2 1 3l-4-1-2-1h-2c-1-2-1-7 1-6s7-2 7-4l-2-2-1 1-2 1c-3 0-17 6-17 8l-2 1c-1-1-2 0-2 1l-1 1-1-2 1-4 4-1c3 0 3 0 1-2-3-4-3-6 1-10 5-5 13-3 13 4 0 3 0 3 2 2 3-3 2-5-2-8-6-5-12-4-20 4l-9 8-2 2c0 3-4 6-9 6l-5 1c-1 3-3 0-3-4 0-3 0-3-3-1-3 3-5 2-3-1 2-4 0-10-5-11-3-1-4-2-1-4l1-4 1-4 2 1 1 6c2 2 4 3 4 0-1-3 1-9 3-8v4c-1 9 7 17 12 12 2-2 3-2 3-1 1 2 3 2 4-1l-2-4c-2-2-2-3 0-3 3 0 3-1 3-4-1-2 3-8 4-8l1 5c1 7 3 7 7 0l4-6h1zm45 18c1 0 3 2 3 4l-1 1-2-2c-2 0-3-1-2-3h2zm-94 5 1 1v5c1 2 1 3-1 4l-3-2c-1-2 1-8 3-8zm-6 9 2 2c2 2 4 2 7 1l3 1c-1 2-6 2-11 0l-3-3 2-1zm52 4 2 1c0 3 17 10 24 10l7 1c-2 2-11 4-16 4s-5 0-2 2h8c3 0 4 0 3 1l4 2h10c1 1 2 0 1-2 0-2-2-3-6-1-3 1-7 0-6-2s1-1 2 0h2c2-2 10-2 9 0s3 2 4 0l4-1 3-3 2-2c2 3-2 8-7 10-6 2-7 5-3 5l23 8-16-4c-9-3-10-3-3 1l7 2c1 0 2 0 1 1l4 4c7 4 13 10 12 10l-8-5c-5-3-8-5-9-4s2 3 7 7c11 8 15 11 14 12l1 2c1 1 1 1 0 0-1-3 1-2 4 1s3 3 0 2c-3-2-9 0-8 3 1 1 1 2-1 2l-3 2-3 3-6 2-4 2 4-1c4 0 4 0 1 1l-11 2c-6 0-9 1-10 2-2 3-2 3 2 3l1 2c0 2-4 3-7 2h-4c-2 2-4 2-5 2l1 1c2 2 2 2 0 2l-4-1c-1 0-2-1-1-2l-1-1c-2 0-2 1-2 2 1 4-10 7-13 5h-5l-4 1c-3 1-4 1-5-1-2-2-3-2-18 0l-5 1c-2 0-1 3 1 3 3 0 3 3 0 6s-6 1-3-2c4-5-11-1-16 4-4 3-5 4-6 1 0-2 1-3 2-3l2-1h-2c-2 0-3-2-1-3 3-2 2-5 0-4l-2-1h7c5 0 7 0 8-2 1-1 4-3 8-3l6-2h-3l-2-1c0-1 6-3 7-2l4-1c3-2 10-2 10-1h5c3-1 4-1 5 1l3 2c2-1 2-1 0-1l-2-2c0-2 5-4 7-3l2-1c-2-1 7-4 10-3l2-1c0-1 7-5 15-7 9-3 9-3-1 2l-11 7-6 3c-3 0-5 1-5 2h4c5-1 10-1 10 1l2 1v-2c-3-3-3-6-1-6h4l4-1c2 0 4 0 3-1l2-1 8-2 7-3 6-3c1-2 3-3 5-2l3-1v-2l1-3c-1-1-1-2-2-1l-1-1c0-4-4-6-5-3 0 1 0 3 2 4s2 2 0 2l-2 1c1 2-1 2-4-1-2-2-2-2-1 1 0 3 0 4-3 5l-6 2h-3l2-2v-2l-1-2-1-2-5-2h-5l4-2 5-1c3 1 3-1 1-3s-2-2-3 0l-3 2c-3 0-14 4-16 6h-2l-2 1-3 4c0 2 0 3-1 2l-3 2c-4 4-6 3-8-2l-4-5v2c2 3 3 12 1 11l-9 2a91 91 0 0 1-15 5l-3-1c-1-1-2 0-4 1-1 2-4 3-6 4-3 0-4 1-3 2l-3 1c-3 0-4-1-2-1 4-1 3-3-2-5-3-1-5-2-4-3l16-2c8 0 5-2-4-2-5 0-9-2-7-4 1-1 23 4 24 5h4c1-1 1-1-1-1-4 0-7-4-4-5h-6c-5 1-7 1-7-1l-2-2c-1 1-4 0-7-2-5-2-5-3-4-3 2-1 4 0 4 1 2 2 3 2 4 1 2-1 2-2-1-3-2-2-2-2 1-2 3 1 3 1 1-1-3-2-2-2 5 0 3 1 3 1 0-1-4-3 6-3 9 0l7 2 5 1 2 1 6 3 3 2-2-3c-3-4-3-6-1-6 3 0 8-4 7-5v-1l3 2c2 2 2 2 1-1-1-2 0-3 1-3l3-2c3-2 4-2 3 3l-5 5-4 4c0 2 4 1 7-2 3-4 6-5 4-2-1 2 5 0 8-3v-2l-2-2 2-1h1c0-1 1-2 3-1l4-1 3-1-1-2-2-1h-3c-2-3-3-3-5-1s-3 2-4 1-2-1-1 1c1 3 1 3-1 0s-3-3-4 0c-2 2-4 1-3-2 0-1 2-2 6-2 3 1 5 0 6-1l-4-1-2-1c2-1 2-3-1-3-1-1-4 1-7 4l-7 5-4 3c-2 2-2 2 1 2l3-2c0-2 5-2 6 0 3 3-17 8-22 5-2-1-3-1-5 1s-2 2 2 1c3 0 6 1 6 4 0 2-7 2-10-1-2-2-4-3-12-3l-8-1h-1l-2 3c0 2-1 3-3 3-1 0-2 0 0-2s2-3-2-2c-3 0-4-3-2-5 1-1 0-2-2-2-4-1-4-1-1-4 4-4 3-9-1-8h-2c0-1 1-2 2-1 2 0 1-3-1-5-2-1-2-2 1-2 3-1 4-2 4-5-1-6 0-8 2-9 2 0 2 0 1 2-1 4 3 10 5 7s2-4 0-3c-1 0 0-9 2-11l2-2 1 1c-1 1 1 4 3 6 5 6 5 9 1 13-4 5-3 7 2 3 2-2 3-2 4 0h3c3-2 10-1 12 2 2 4 4 4 3 0 0-2-2-4-7-6-13-5-14-9-6-17 8-6 12-7 16 0 2 2 2 3 0 1-3-2-7-1-7 1 0 1 20 6 21 5 1 0-1-2-4-2-3-1-5-3-5-4l-2-3c-2-1-2-2-1-3s2-2 3-1zm-28 3c2 0 3 0 2 1-1 0-2 1-2 3 0 3-3 3-4 0s0-4 4-4zm-30 11h1l2 1 2 1v3h-3l-2-4v-1zm112 5-1 2c-1 3-5 4-5 2s4-4 6-4zm-32 28 1 2c1 2-2 5-3 4-2-1 0-6 2-6zm23 12-4 2c-6 2-6 2-5 0l-1-1-2 2c0 2-2 3-5 3-5 0-5 0 0-4l11-2zm-90 73 5 1 2 3h-1l-4-1c-2 0-3-1-3-2l1-1zm193 20h-2c-1 1-2 1-1 2h5c0 1-1 2-3 2-1 1-1 1 1 1 6 0 7 2 7 6-1 3-1 4 2 4 4 0 4 0 1-2-2-2-2-3-1-3 1-1 1-2-2-5-3-2-4-4-4-5h-3z" clip-path="url(#b)" transform="scale(.75)"/>
  <path d="M68 113c0 1 1 4 3 5 1 0 2-3 1-5s-3-3-4 0zm-13 22c0 1 17 4 18 3s0-1-2-1l-6-1-10-1zm5 7 2 1 1 2v1l1-1 2-1 2-1-4-1h-4zm21 1 9 4 14 6c3 2 6 1 4-1l-11-4-3-2h-2c-2 0-3 0-2-1 0-2-8-4-9-2zm-17 4c-1 1-1 1 2 1l5-1c3-1 1-2-2-2l-5 2zm17 0-2 1 2 1h4l-1-2v-1l-3 1zm13 5 3 2 3 1c1 2 4 1 3 0l-2-1h-1c1-1-5-4-7-4l1 2zm-5 0 2 2 4 3h3c0-2-8-7-9-5zm-57 2-2 4 3 1c1 2 4 2 13 4l4-1-5-1-4-1-1-1c-2 0-5-3-5-5s-1-2-3 0zm71 4-2 2h1l1-1c2 1 5-1 4-2 0-1-1-1-4 1zm5 2-2 1-1 1-2 1 2 1h1l3-1h2l1-1v5c0 1 2 0 2-2v-2l-1-2c-1-2-2-2-5-1zm-19 3c-1 1 1 2 4 2 4-1 4-3 0-3l-4 1zm18 4-1 1c-3 0-3 1-1 4h3l2-4-2-1h-1zm-56 5c-2 1-2 1 0 2h3c1-2-1-3-3-2zm6 6h6l-4-1c-3 0-3 0-2 1zm321-83c-4 1-4 2 0 2 4-1 5-2 4-3 0-1-1-1-4 1zm-102 85zM94 202l-6 2c-2 1-4 1-8-1-4 0-4 1-1 2l10 1 10-3c4-2 3-2-5-1zm32 2c-1 1 0 6 2 6v-3c1-2 4 0 4 2v1-4l-1-1-1-1-2-1h-2zm-38 4-3 3h-1c-1-2-1-2-3-1l-2 1h-2c-2 2-3 2-4 1l-3-1h-5l-3 1-2 1-1 1-2 1-1 2-1 2-3 2c-2-1-5 0-5 1l3 1 3 1-1 1h-1l1 2c1 0 1 1-1 1-1 1-1 1 1 1 3 0 4-1 4-2v-4h1l1-1 1-3 1 1v1l1-3 4-2h12l2-1 3-1 2-2h3l3-2 4-1c0-2-3-2-6-1zm46 0 2 1c1 1 2 2 1 3l1 2h2c1 1 1 1 0 0-1-2-1-2 1-4v-1c-1 1-3 0-5-1h-2zm124-1h1-1zm-210 5v1l-2 2 2 2c2-1 3-4 1-5h-1zm46 1-3 2h-2c0-2 0-2-3 0l-18 8-3 1-1 1-3 2v2h2l-1 1c-2 0-2 3-1 5 2 1 2 1 3-1l4-5 1-1-1-1c0-2 2-1 5 2 2 2 4 3 5 1l5-1 6-1c1-2 7-3 8-2l7 1h7l2 1-2-2c-3-3-2-4 4-3 3 0 3-2 1-4l-2-1c1 3-3 4-8 4-5-1-5-1-4 1s1 2-1 1c-3-3-8-3-13 0l-6 2-4 2c-3 3-4 2-2-2 3-5 7-8 10-7l1-1 2-1h2c1-2 3-1 3 1h1l1-2h4-1l-1 1h3l1 1c-1 1-1 1 0 0 2-2 2-2 4-1h6l1-1c-1-1 0-2 1-3s1-1-1-1l-2 1h-1c-2-2-4-1-3 1l-1 1-1-2h-8l-1 1v-1h-2z"/>
  <path d="M119 213v1h-4c-1 1 5 7 7 7v-2h2l1-1-1-1-3-2h6v2l1 1 1-1h2c1-1-1-4-4-4h-8zm-53 6h6c1-1 1-1-1-1l-5 1z"/>
  <path d="M125 221c-1 1-2 2-4 1s-2-1-2 1 0 2 3 1h4l2-2v-2c0-1-2-1-3 1zm12 5v5l1 1c-2-2 2-4 5-3 4 2 5 1 3-2h-1c0 2-5 1-5-1l-1-1-2 1zm-9 1c-3 0-4 1-2 2s1 3 0 3l-2 1 4 1v-2c0-1 1-1 3 1h4l-2-1c-2-1-3-4-2-5v-1l-3 1zm-31 4-3 1-2 1c2 2-1 2-2 0-2-2-2-2-3-1-1 2-6 4-6 3l2-2-1-1-2 2h-2c-2-1-12 1-13 3l-9 4-2 1-6 1h-6c-1 2-2 2-5 1l-1-1 1-1c-1-1 0-2 1-2 2 0 3-2 0-2h-4l-1 2h-3c-1-2-2 0-2 4v5l1 2 1 1c1 0 2 1 2 8l1 10 1 1 1 6 1 6c-1 1 0 2 1 3v5c1 1 2 2 1 4l1 3 1 1c-2 4 5 4 10 0 1-1 2-2 3-1l1-1 2-1c3 0 9-2 9-4 1-1 2-2 3-1 2 0 3-1 0-3-1-2-1-2 1-2h2l-1-1c-5-1-6 0-6 1 0 2-3 9-4 7 0-3-10-8-11-6h-4l2-1c2 0 2 0 1-1l3-1c5 2 10 2 8 1-1-1-1-1 1-3 1-1 1-1-1-1-3 1-8-3-8-5h-4c0 1-1 1-2-1-2-2 0-3 3-2l2-1-1-1c-2-1-2-1-1-2s0-6-2-9l-1-3-1-3-1-1-2-2c-2-1-2-1-1-3l2-2h1c1-2 5-3 5-1h3v1c-1 2-2 2-2 1 0-2-2-1-1 1l-1 3c-1 1-1 1 1 1l2-1 4-1c4 0 5 1 4 2h2c2 0 3-3 1-3l3-4c5-4 10-5 11-2h7c0-1 1-2 4-2l4-3c0-1 0-2 2-2v1l-1 1c4 1 7 0 4-1-2-2 0-4 4-4l3-1h-1l-3-1h-1zm-21 6c-3 2-3 2-2-1 0-1 1-2 2-1 2 0 2 0 0 2zm-38 15 2 2c3 2 1 3-3 2s-5-2-3-3v-2l1-1 3 2zm4 7-7 2 6-3 1 1zm-2 6 2 3v2l-1 2c3 0 2 2 0 2s-4 5-2 5v1c-1 2-2 1-3-5l1-6-1-2-2-2 2-1c3-1 4-1 4 1zm12 15-1 1-2 1-1 1-3 2c-1 2-2 2-3 2l1-2v-1c-1-1 0-1 2-2l4-3c-1-1 0-1 1-1l2 2zm-1 12c0 1 1 2 3 1 2 0 2 0 1 1-3 2-7 3-7 1l1-1v-1h-7l7-3 2 2zm59-61c-6 1-6 2-1 2l4-1h1l1-1h-5z"/>
  <path d="M144 232c1 1 1 1-1 1-3 1-3 1 0 1 5 0 5-2 1-3-2 0-2 0 0 1zm-30 2v1l1 2 1 2 2 1 1 1-2-3c-3-4 0-3 3 0l3 4h4c2 0 1-3-2-4-2 0-4-1-4-3-1-2-4-3-7-1zm33 1-3 1 2 1c2 1 2 2 2 3l1 1 1-1-1-2-1-1 2-1h2l-2-1h-3zm19 0-2 1-3 1v1l2 2c0 2 0 2-1 1l-1-2h-3c-1-1-1-1 0 0l2 2v2c-1 1-1 1 1 1l3-1c-2-1 1-4 3-4 1 1 1 1 0 0-1-2-1-2 1-3v-2l-2 1zm-64 1 7 3c1-1-1-3-3-3h-4zm-4 4c1 2 1 2-1 2-3 0-5 0-4 1l-1 1-2 1h-4l-3-1 1 1 1 2 5 2c3 0 3 0 2-2 0-2 0-2 1-1l5 1h8c3 1 4 0 5-1 1-3 4-3 7 0 1 2 1 2-1 3-1 2-5 1-5-1l-1 1-2 2h-2l2 1c1-1 3 0 5 2l4 2 1 1 2 1 2 1-1 2c-1-1-2 0-2 1l-2-1-5-2c-3 1-4 0-4-2l-2-2v1h-1c-2-1-2-2-1-3v-1h-1l-3-1v1h-4c-2-2-11-2-9-1 1 2 0 4-2 4l-1 2v1l-1 2-2 3 3-1 3-3 2-1c5 2 7 1 8 0l-3-1c-4 0-6-1-6-2l5-1 6 1 3 2 3 1 5 4 6 3h4l-3 2-2 1c2 0 3 5 2 7 0 2 3 4 4 3l-1-1c-2 0-1-3 1-4v-2l1-2 1-1-1-1-1-1 1-1c2 0 4-2 4-3h-1l-1 1v-3l-1-2-4-3-2-2c2 0 2 0 2-2v-2h1c-1 1 0 1 3 1v-1c-2-1-5-3-4-4l-14-4-7-1h-1zm44 2-1 3v1h3v-1c-1-1 0-1 3-1 2 0 2 0 1-1l-3-1h-3zm10 1v1c-2 0-4 4-2 6 1 1 1 1 2-1v-2h-2l2-1 2-1 2-1c2 0 2-1-1-2s-3-1-3 1z"/>
  <path d="M126 245c-4 2-4 2 1 4 3 2 3 2 4 0l2-2v-2c0-2-2-3-7 0zm-57 0-2 2c-3 2-3 2-2 3h7c1-1-1-6-2-6l-1 1zm110 1c1 1 0 2-1 1l-2 1c-1 3 1 3 4 2 2-1 2-4 0-5l-1 1zm-44 4v3l-2 3-2 4v2c-2 0-2 1-2 2 1 1 0 2-1 3h1l2-2h1l2-1 1-1v-2l1-2c1 0 2-1 1-2l1-2v-1l-1-1 1-1h1v-2l-3-1c-2 0-2 0-1 1zm-68 4H49c-3-1-4-1-2 1v2h2c3 0 4 1 2 2l-1 2 2-1h6l3-1-1 2-1 2 2-1c3-3 4-2 2 1l-5 4c-2 0-6 3-5 4l4-1 3-2-1 2-2 2v2c1 1 3 0 5-5l4-4c1 0 3-5 2-6v-3l1-1 1-1 3-1-6 1zm88-1 1 1h1c0 1-1 2-2 1-3-1-6-1-5 1h1c2-1 6 1 6 3l2 2 1 1h-1l-1 1h3l3-5-1 1h-2c-3 0-3-1-3-4s-1-4-3-2zm19 0-2 2-3 2c-3 1-3 2-2 3 2 1 2 1 0 2-4 2-4 6-1 6 2 0 3-2 2-2h-2l2-3 2-4 1-1 3-2c0-1 2-2 3-1l1-1c0-1-2-2-4-1zm-98 5c1 4 1 4-1 6l-2 3-1 1-2 1 1 1c2-1 3 0 5 2 3 3 4 3 4-1 0-2-1-3-2-3v-2l1-2v-4l4-5-4-1-4-1 1 5z"/>
  <path d="m97 261-2 1-2 1h-2l-7 3 2 1c4-2 7-2 9 0s2 4 0 2h-4c-2 1-2 1 0 2v2l-1 1-6 3c-3 3-4 6-2 6h1-4c-3-1-4-1-1 3v2l-1 4-2 14c-1 5-1 5 2-1l4-6c2-2 3-4 1-4v-2l3-1 1-3c1-1 2-3 4-3l2-2h-2l3-2c4-2 8-1 8 1-1 1 2 2 5 1l5 1 2 1h1l-1 1c-2 1 1 8 4 8 1 0 1-1-1-2v-1c2 1 1-8 0-10-2-2-3-3-1-3l1-1c0-2 0-2-2-1-2 3-9 0-8-3 0-2 1-2 1-1h1l-1-1v-3c0-2 0-2-3-2-3 1-4 0-6-2s-2-3 3-2h3l4 1 3 2v-1l-2-2-2-1-6-1c-3-2-3-2-4 0zm0 15h4l3 2-1 1-1-1-1-1v2l-3-1-3-3 2 1zm89-15 1 1 3 2v1h1v-2c0-1-3-3-5-2zm-114 2h-2v-1c-2 1-1 3 1 3l3-2v-2l-2 2zm83-1h-2v1l3 2c2 0 2 0 1-1l-1-2v-1l-1 1zm19 1-3 2-2 2c1 2-3 5-4 3s-1 1-1 5c0 2-5 4-8 3-3 0-3 0-1 1 3 2 3 2 1 3v7l-1 1-1 1c1 1 0 1-1 1l-2 1 1 4 1-1v-1c1 1 5-4 5-5l3-3 2-1c-2 1-2 1-1-1v-3l3-1c2 0 2 0 1-1v-1l2-1c-1-1 0-3 4-5 2-1 2-2 0-4-1-2-1-3 2-1h2v-4c2-3 1-4-2-1zm6-1c1 1 0 1-1 1l1 1h3l1 1c-1 1-1 1 0 0 5-1 1 3-5 7h1c4 0 7-1 6-2h-1l-1-1 3-1 2-1-1-1v-1c0-1 0-2-2-2l-5-1h-1zm-131 2c0 1 2 3 4 2 3 0 3-2 0-2h-4zm254 2c-2 3 0 5 4 5 1 0 0-3-2-4-1 0-2 0-1-1l1-2-2 2zm-238 3-4 5c-1 2-3 3-4 2v2c2 3 3 2 10-9l2-2-1-1-3 3zm79 1c-1 1-2 3-1 6l-1 5-1 2 1 1v1l-1 1c-1 0-1 2 1 4l1 1 1-2c2 2 2-8 1-11-1-1 0-1 1-1v-1l-1-1 1-1c2 2 4 0 3-2h-4c-2 1-2 1 0-1s2-3-1-1z"/>
  <path d="m68 273-2 1-1 1v2c-2 0-1 1 3 1l6 2h3c3 0 5-2 3-2l-1-1c1-1-2-1-4 1l-1 1c0-3 0-4-2-4v1c1 1 0 2-2 0v-3c2 1 3 0 2-1-2-1-3-1-4 1zm56 0v2l-1 1h3v-2l1-1c1-2 1-2-1-2l-2 2z"/>
  <path d="M64 280c-1 1-1 1 1 1h3l-1 1-1 1h2v-3c-1-2-2-3-4 0zm267 2-10 4-6 3-6 2-1-1-2 2-2 2h-1c0 2-5 6-11 8l-9 3c-3 2 3 1 9-2 8-2 25-7 45-22 2-2-1-2-6 1z"/>
  <path d="M454 372c25 8 4 52 4 79 3 37 3 64 7 101-29-2-59 13-87 5-22-1-43-7-63-12 16 15 39 9 59 16-47-6-81 10-121-3-2-5-13-23-23-19-6-5-14-8-21-8 1 17 42 13 37 29-19 0-35-21-56-13-16 2-42 9-54-1 9-15 46 14 44-11-23 9-42-12-64-11 28 1-1 35-16 27-12-9 5-21 5-3 0-14 11 1 4-12-5-4-35-6-20 0-16 0 2 11 5 0 3 13-14 27-14 7-6 9 10 16-6 17-17 9-37 22-54 26 12-10 34-11 39-25-22 6-41 21-58 35 18 2 39-8 57-16 15-3 30-32 43-16 12-5 19-15 35-6 19-2 39-1 58 0 17-2 32 5 46 6 95 8 200 6 283 5 105 7 94-2 64-2-27-2-55-1-82-3-40-12-35-34-39-57l-10-133-1-1-1-1zM134 535c13 10-21 21-3 3z" clip-path="url(#c)" transform="scale(.75)"/>
  <path d="M123 283c-2 2-1 5 0 4l1-2c-2-1-2-1 2-1 3-1 4-2 1-2l-4 1zm60 5c1 1 0 4-2 4l-3 1c-2 2-6 2-7 0 0-2-2-1-2 1l1 1c1-1 1 0 1 1l-1 2-1-1-1-1v3l-2-1-2 1c-2 1-3 3-2 3l-1 2c-2 1-1 2 1 2l2 2 1 1h1l1-3c0-1 0-2-2-2v-1l2 1h2c1-2-1-3-3-2l-1-1 3-1h5l2-1h1c0-1 0-2 1-1l3-1c2-2 2-2 3 0s2 3 4 3l-1-1-2-4c0-1 0-2 1-1l2 1-1-2c-1-1-1-1 1-3 2-1 1-3-2-3l-2 1zm10 1h1l1 1-2 2v1c2 1 2 1 3-1l2-2c3 0 2-1-2-2l-3 1zm27 0 1 2h3c0-1-2-3-4-3v1zm-81 2c-2 2-2 2-1 4 3 2 4 0 3-3 0-2-1-2-2-1zm-19 4-3 5v1l2 1h1v-2l1-4v-5l-2 4zm-22-2c-3 2-2 4 0 4h4l1-1h2c3 0 3 0 3 2l2 3 1 3 1 3 1 3 2 2-2-7-3-9v-3H98zm-30 1-2 1a180 180 0 0 1 0 6l4-2c3 0 3 0 1-1-2 0-3-2 0-2v-1c-1 0-2 0-1-1h-2zm21 4h-2l-1 1v1l-1 2h7l-2-1c-2 1-3 0 0-2 2 0 2-1 1-2-2-1-2-1-2 1zm-34 1-3 1c-1-1-2 0-2 1h1v1l-4 1c-2 0-3 1-2 2l-1 1-2 1-1 1h-1l1 1 1 4c0 5 0 6 2 4 2-1 2-2 1-3v-2h4l3-2h-7l3-1c1-1 3-2 2-3h6l2 2c-2 0-2 1-1 3 1 3 1 3-2 3l-3-1h-2l-2 2-1 2-2 2h1v5l-2 3v3c2 0 4 4 3 6v2c3 0 5 4 4 4-3 1-2 3 0 3 1-1 2 0 2 1l-1 1-2 1 1 1v2c0 6 1 11 3 11l2 2h-2l-3 1v1h2l1 3v4l1 1 1 2 1 3 1 1 1 1 2-1c0-2 1-4 3-3l1-1h1c2 1 1 2-1 2s-4 4-2 4l-2 2c-2 1-3 2-3 4 0 7-2 13-6 15-2 2-3 2-2 3v1l-1 3c0 2 0 2-1 1 0-3-2-1-2 2 0 5 3 7 7 6s5-2 2-4l-1-4 2-5c0-2 6-9 9-9 2 0 5-6 5-9-1-4 2-5 3-1 2 2 1 2 12 0l4 1-3 1-7 2c-2 1-4 2-5 1l-4 3 9 3 4 1 1 2v1c3 0 2-2 0-4s-3-3 0-3l1-1-4-1c-3 0-3 0-2-1l5-1c4 1 10 0 8-1s-2-1 0-1h3l-3-1-1-1-5-1c-7 0-16-3-16-4l2-4v-5c1-3 1-3-1-3h-2l2-1c2-1 3-3 2-8l1-2v-20l-3-12v-3l-2 3-3 2h-1l2 1 1 1 1 1c2 0 2 1 1 3s-1 3 1 4c2 2 3 3 0 3l-1-1c0-2-4-4-5-4h-1l1-2v-1h-1l-2-1c0-1-1-2-2-1-2 0-1-2 1-4v-3h-2c0 2-3 3-3 1l1-2c2 0 2-2 1-2l-3 2c-1 2-3 0-2-3 0-2 0-2-2 0l-3 2 1-3 4-2 1-1c0-1 4-2 7-1l2 1 2 3 2 3v1l1-1v-3l-1-2-1-2-1-1v-3l-2-4-1-3v-1l-2-1-3 1h-2c-2 0-2-1-1-1v-2h2l3-1c1-1-2-2-4-1zm5 43 2 1 2 1 1 1c3 0 5 3 4 4s0 1 2 1h2l-1 3c0 2 0 2-1 1l-4-1-5 1c-4 0-5-1-5-2l2-1h2c1-2-3-3-5-2l-1-1 1-1c1-1 2-2 1-3 0-3 1-4 2-2zm10 19-1 1-3 6v2l2 2-1-1-2-1h-3c-2 2-3 1-2-2 0-2 1-3 3-4s3-2 2-3l1-2v-1l3 1c2 1 2 2 1 2zm79-60v4l2 3c-1 2-3 2-4 0l-1 1-2 2c-2 0-4 4-3 5l5 1c4 0 5 1 2 2-1 1 0 1 1 1l3-1 2-1 3-2h-1c-2 1-10 0-11-1v-1l3-1 2 1 1 1v-2l1-2c1-1 4 0 4 2l1 1v-2c-1-1-1-2 1-2 2-1 2-1 1 1 0 2 0 2 1 1v-4l-5-1h-1l-3-2-1-2v-2l2-1c0-3-1-2-3 1z"/>
  <path d="M101 300h-2l-4 2c0 2-2 3-3 3l-2 1-3 1c-3 1-4 2-2 2v1l-2 1h3c2 0 2 0 2 3 0 2 0 2 1-1s1-3 2-2c1 2 1 2 3 0l6-2-1 1-2 2h8l1 1 3 1 2 3 3 3h2l-8-12c1 0 0-2-2-3l-1-4-1-1h-3zm33 4-2 3-1 2-2 1c-2 0-3 1-3 2-1 1-1 1 0 0l5-1 1-1c-1-1 0-2 1-3 2-1 3-4 1-4v1zm144 0-6 3-7 4-9 5-6 3v4l1 14 1 73c4-5-2-74 1-79v-1l-1-1v-5l-1-3 13-6 13-8 2-2c1 0 2-2 0-2l-1 1zm-200 3v2c2 0 4-4 3-4l-3 2zm40-1-1 2-1 1-1 4 1 3 1-1 1-2c1 0 1 1-1 4v1c2 0 2 0 2 2l-2 2v1l2 1 1 1v-3c2 1 2 0 2-1l1-2v-1c-2 0-1-2 2-3h-1l-3-1-1-2c-2-2-1-3 1-2l3 1-3-2-2-3h-1zm-50 3 1 4 2 3c0 2 2 7 3 6v-6c0-3 0-4-2-4s-2-1-2-3l-1-3c-1 0-2 1-1 3z"/>
  <path d="m85 313-1 1c-2-1-6 2-6 4 1 1-1 7-2 8v1l1 3v3l1 2c0 1 1 1 2-1 2-2 2-2 0-1-2 0-2 0-1-2l4-2c1 1 2 0 3-1h13c1-1 2-1 4 1 1 2 3 3 4 2l1 1-2 1c-1-1-2 0-3 1l-3 1-5 1c-3 1-5 2-7 1-3-1-7 0-8 1-1 2-1 3 1 2l4 1c3 2 6 2 10-1l5-2 4-1h3c0 1 1 2 4 2l4 2h-1c-2 0-3 1-1 2l1 2 1 2h2c0-4 0-4 2-3l1 3c-1 2 1 1 2-1v-4l-1 1v1l-4-3-2-2-2-4-2-1c-2-1-2-1-1-3 2-2 2-2 0-2-2-1-2-1-2-3v-1h-4c-1-1-1-1 1-1h2v-2c1-1 8 5 8 6s2 2 6 2c3-1 6-3 5-4l2-2c3-1 4-3 1-4h-1c1 1 0 2-1 3l-3 4-3 1c-4 1-5 0-3-1v-1l-5-3-5-3c-3 1-6-1-5-2l-2-1h-2l-2-1 1 3c1 1 1 1 0 0l-8-1-1 2c-1 1-1 1-1-1l-1-2-1-1v-2c0-2-1-2-1-1z"/>
  <path d="m138 315-1 1c-1-1-2 0-3 1-2 3-2 5 0 5v3h1l2 1c1 1 1 2-1 2h-1c0-1-4 0-6 2s-5 3-3 1h-1l-2 2-3 2c-2 0-2 0-1-2 0-2 0-2-1-1l-1 1-1 3c-1 1-1 1 1 1 3-1 3-1 3 1-1 2-1 2 2 2l3-1v-1l2-2c0-2 1-3 2-3l4-1c2-2 3 0 1 2l-2 3-2 2-2 2 4-1c1-1 3-2 4-1v-4h2c1-1 1-2-1-3-1-2 3-7 5-7l2-1 1-1v3l-1 3 4-1c3-2 5-1 2 1h2c2 0 2 0 1 1-2 2-4 2-5 0h-1c1 2 1 2-2 1-3 0-3 1 1 2 3 2 5 2 5 1-1-1 0-1 2-1l1-2c1-3 4-5 7-4l2-1-2-2-3-1h4l3 1v1-4l-1-2 2 1 5-1c5-1 5-1 4-3-3-2-7-1-6 1 0 2 0 2-4 1l-4-1 2 1v1l-9 3-3 2h-1l-2-1-2-1h-4l-5-1c-3-3-3-4 0-3h2c1-1 0-3-1-4v1zm66 7v4h1c1-1 1-1 2 1h1l4-1 5 1c1 1 1 1 0 0l1-2c1 1 1 0 1-1l-2-2h-1c1 1 0 2-4 2s-6 0-6-2l-2-1v1z"/>
  <path d="m169 327-2 2-1 2-2 1-2-1-2-1 1 2c3 3 2 3-3 3l-4 1-3 1-2 1-3 1c-7 0-8 0-8 2l2 2 1 3 1 1 1-1v-1h3c2 0 2 0 1-1-2-1-2-1 0-2 1-2 5-1 3 1l4-1 7-1c4 0 6 0 5-1l-1-2 1-2h3c2 1 2 1 2-1l1-2 1 1 3 1c1 0 2 0 1-1l2-1h5l1-1-2-2-3 1-2 1-2 1h-1l-1-1-3-1c-1-2-1-2 2-1h4v-1l-1-1c0-1-1-2-4-2l-3 1zm29 0 2 1 3 2c1 1 1 1-2 1h-3l2 1 1 1h2l3-2c3 0 5-1 4-3l-2 1h-3l-1-1-3-1h-3zm-103 6c-2 1-2 1 0 0h3l3-1c0-2-4-1-7 1zm99 8 5 1c2 0 2 0 1-1l-3-1-3-1v2zm16-1 1 1c1-1 1 0 0 0-2 2-2 2-1 4 3 2 4 0 3-3 0-3-3-4-3-2z"/>
  <path d="m134 342-3 2h-2v-1l-2 1v2h-1l-1-1-1 2-1 1c-3 1-2 6 1 6 3-1 3 0 3 3l1 3 1 1c-1 1-2 0-3-1l-1-3-2-1-3-1c-1-1-5 2-5 5l-3 4-3 4c0 2 0 2 2 0l4-3 1-1 2-1 1-1 9 1 4 2-2 1h-4c-2 1-1 1 5 1l9-2v-2l-2-2-1-2-1 2-1 1h-3c-2 0-2 0 1-2 2-2 5-3 5-2l2-1c2-3 9-6 9-4l-1 1-3 1h2c4-1 8-1 9 1h1l2-1 2-1h1v-2c-1-1-2-2-1-3l-1 1h-2l6-2h2l-2-1c-1 0-2-2 0-2h-11c-2 0-2 0 1 2l2 2 1 3c1 1 1 1 0 0l-2-1-1-1c-1 1-3 0-4-1h-7c-2 0-2 1-2 3l-9-1c-1-1-1-1 0 0l2 2-1 1c-2 1-3 0-2-1l-1-1c-2 1-4 0-3-2l1-2c1 1 4 0 3-1h2c3 0 5-2 5-5h-4zm35 2 3 1 1 1c-1 1 0 1 0 0 2-3 2-3-2-4-3 0-3 0-2 2zm20 0 1 2-2-1h-1c-1 3 0 4 3 1s3-4 0-4c-2 0-2 0-1 2zm-92 0v2h-1l-7-1c-7 0-7 0-6 3l1 3 4 1c7 0 8 0 7 1l7 1c2 0 3 0 2 1s-1 1 1 1c3 2 7 2 6 1l1-1c2 0 1-2-4-7-3-3-5-4-7-4h-2l2-1c1-1 1-1-1-1l-3 1zm102 0-2 1c-3-1-4 3-1 3h6l-1-4-1-1-1 1zm6 0h-2v1l2 1c1-2 2-1 1 1l1 3 1-2c-1-1 0-2 1-2s1-2-1-2h-3zm-26 0 3 6 1-1 2 1c1 1 1 0 1-2-1-3-7-6-7-4z"/>
  <path d="M169 347c-2 4 0 9 2 5 1-1 1-1 3 1h1v-2l1-1c0-1-1-2-2-1-2 0-3 0-4-2s-1-2-2 0zm46 5-4 2-1 1-1 1c-2-1-2 0-2 1l2 3 2 1h2c2-1 3-2 1-3-1-1-1-1 1-2l2-4c0-2 0-2-2 0zm-138 1 1 4 1 4c-1 4 10 10 20 10 2 0 2 0 1 2l-2 1v1c-1 2-1 2 1 3 1 1 1 1-1 1l-4 3c-1 1-3 0-2-1l-1-1c-3 0-1 4 2 4h6c4 1 4 0 1-2h1c2 0 7-7 7-11 0-2-1 0-3 4l-1 3 1-3c0-5 2-9 3-9l3-6h-2c-3 0-3 0-2 2v1l-2 1c2 2-8 5-13 4l-4-2h5c2 1 11-1 11-2l-1-1v-2l-2 1c-1 3-4 3-4 0-1-2-7-7-11-6l-1-1-1-1c-1 1-2 0-3-1 0-2-3-3-4-1zm9 3 1 1-1 2v1l1 2 1 1v1l-3 1 1-1v-2l-2-3h-1l-2-1c0-2 2-3 4-2h1zm103-4c-1 2 0 3 2 3l2 2 1 1c2 0 1-3-2-4-2 0-3-1-2-2h-1z"/>
  <path d="m205 352-4 1c-2 0-3 2 0 2l3 3c0 2 2 3 2 3v-1l-1-1-1-2-2-2 3-2c3-2 4-2 2-2l-2 1zm-28 4c1 1 0 2-1 2v-2c0-2 0-2-2 1v2h1l2 2c4 2 7 6 5 7h3l6-1h18c1 2 3 0 2-2 0-2-4-3-5 0h-1l-1-1-2-2c1-1 1-1 0 0-1 3-5 3-8-1-3-5-6-6-5-3l-1 4c-2 4-5 5-5 2l-1-2v-2h1l2 1c1 1 2 0 2-1v-2l-4-2h-2c1 3-1 3-3 0-1-2-1-2-1 0zm16 7c0 1 0 2-2 2s-2-1-1-3c0-3 2-2 3 1zm-24-6c0 1 0 2-1 1l-1 2h-2c-3-3-4-2-3 1l2 4v-1c0-2 3-2 6 1h5v-1l1-1-1-1-1-1h-2l-1-1c1-1 0-2-1-3h-1z"/>
  <path d="M196 358c-1 1 0 3 1 4h1v-4c0-2-2-3-2 0zm-55 0c0 1 2 3 4 3s3-1 2-3h-6zm15 2v4l-1 1-2 2-2 1 1-1c2 0 1-2-1-2l-1 1-2 3c-2 2-5-2-3-4s1-4-1-2-2 3-1 5c1 1 2 2 1 4l1 2h2l3-1 4-1c3-4 2 4-2 12l-2 5c0 2-1 1-1-1v-3l-1 3-1 6v3l2-3 3-4 1-3 1-4 3-5v-9 1h-1c-2-1 1-4 4-4s2-3-1-4l-2-2v-1l-1 1zm-80 6c-3 1 0 9 4 9s3 3-1 4h-5l7 1h8l3-1c3-1-4-1-7-1l-1-1c1-2-3-10-5-10l-1-1h-2zm137 1c-2 2-2 4 0 3 2 0 3-2 2-4l-2 1zm-47 4v1l-1 1h-2l1 1 1 2 1 2v-2c0-2 0-2 4-2 2 0 3 0 2-1l-2-2h-4zm19 1h-2c-1-1-1-1-1 1 0 1 0 2 2 1l4 2c2 2 2 2 3 1l2-2h1l1 1c1 3 3 2 4-1l-1-3h-2c-2-2-5-2-5 0v1l-1-1h-3c1-2 0-2-2 0z"/>
  <path d="m120 372-2 2c1 0 0 2-2 2l-2 2h6l2 1 2 1h2l-2-2c-2-2-1-3 2-2h2l2 1-1 1-1 2h2l4 1h3c1 1 2 0 3-1 4-4 4-5-1-6h-2c0 1-1 1-3-1h-3c-1 2-4 3-4 1h-1l-2-1-4-1zm39 2-1 4c1 1 1 0 1-1l2-2 1-1c0-3-1-2-3 0zm41 1c0 2 0 2 1 1v1c0 3 0 3 2 3l2-1c0-2 0-3 1-2l1-1-6-3-1 2zm-28 1c0 2-2 3-2 1l-2 1c-2 3-2 4 0 4l1 2c-1 1-1 1 0 0h3l1-4v-3l-1-1zm-23 2-2 1v1l-1 3-1 2c1 1 1 0 2-2 2-3 2-3 3-2h2c1-1 0-2-1-1l-1-2c1-2 1-3-1-1zm43 2 1 2c1 1 2-2 1-3-1-2-2-1-2 1zm-14 0h-1c-2 0-2 0-2 2s0 3-1 2v1c2 2 2 2 3 0h2l3-2h1c-1 2-1 2 1 1h2l1-1c1-2 0-2-2-1l-2-1v-2l-1 1-2 2c-2 1-2 1-1-1v-2l-1 1z"/>
  <path d="M160 383v1l-1 1c-2-1-1 3 1 4l2 3 1 4h1v-2h5v3c1 1 1 1 2-1 0-3 2-4 2-2l1 1 4 1 5 2 3 1c1 2 4 3 4 1l1-1 1 2v4l1 1c2 0 2 0 1-2l1-3v-3c-2-2-7-4-5-2h-4c-2-1-3-3 0-2v-1h-2l-3-1-3-1c-2 1-2 1-2-1 1-2-3-3-4-1-2 1-7 1-7-1l-1-2-1 1v2h-1v-5c-1-2-2-2-2-1zm-62 3v2h1l1 1-2 1c-2 0-1 2 1 3l1-1v-1l1-2c1-2 0-4-3-4v1zm32 2h-3v1l1 2 2 1c2 1 2 1 1-1v-3h1-2zm3 2v3c0 2 1 2 1 1 2-3 1-6-1-4zm69 10-1 2v2l2 4v7l-1 2h2l2 1c1 1 1 1 1-1l-2-4v-2c1 0-1-13-3-13v2zm-53 1c0 2 0 2-1 1h-2l-1-1h-1l-1 2c0 1 0 2 1 1l7-1c3 0 2-1 0-3-2-1-2-1-2 1z"/>
  <path d="M196 408v2c2-1 4 1 3 3l1 2c2 0 2-5 0-5l-3-3c-1-2-1-2-1 1zM74 438l77 2 4-1 11 1a759 759 0 0 0-10-2H74Zm160 3h20l21 1c2 1 2 1 1-1l-21-1-21 1zm-170 6-1-5c-2 3 1 12 1 5zm-16-2h-3c-3 1-10 4-8 5l4-1 4-2c2 0 6-3 4-3l-1 1z"/>
</svg>
